# xmcd CD database file
#
# Track frame offsets:
#	182
#	13712
#	26850
#	41130
#	55252
#	69747
#	83557
#	97742
#	110645
#	125270
#	140370
#	153525
#	166680
#	179210
#	193855
#	207315
#	220397
#	233812
#	246772
#	261380
#	274902
#	289010
#	303010
#
# Disc length: 4202 seconds
#
# Revision: 0
# Processed by: cddbd v1.4PL0 Copyright (c) Steve Scherf et al.
# Submitted via: CDex 1.50
#
DISCID=55106817
DTITLE=Fletcher Henderson - 1924 - Vol. 3
DYEAR=1992
DGENRE=Jazz
TTITLE0=He's The Hottest Man In Town
TTITLE1=I Never Care 'Bout Tomorrow
TTITLE2=Forsaken Blues
TTITLE3=Cold Mamas (Burn Me Up)
TTITLE4=Manda
TTITLE5=Go 'Long, Mule
TTITLE6=Tell Me, Dreamy Eyes
TTITLE7=My Rose Marie
TTITLE8=Don't Forget You'll Regret Day By Day
TTITLE9=Shanghai Shuffle
TTITLE10=Words
TTITLE11=Copenhagen
TTITLE12=Shanghai Shuffle
TTITLE13=Naughty Man
TTITLE14=One Of These Days
TTITLE15=My Dream Man
TTITLE16=The Meanest Kind Of Blues
TTITLE17=Naughty Man
TTITLE18=How Come You Do Me Like You Do?
TTITLE19=Araby
TTITLE20=Everybody Loves My Baby (vocal)
TTITLE21=Everybody Loves My Baby (instr.)
TTITLE22=Naughty Man
EXTD=YEAR: 1992
EXTT0=
EXTT1=
EXTT2=
EXTT3=
EXTT4=
EXTT5=
EXTT6=
EXTT7=
EXTT8=
EXTT9=
EXTT10=
EXTT11=
EXTT12=
EXTT13=
EXTT14=
EXTT15=
EXTT16=
EXTT17=
EXTT18=
EXTT19=
EXTT20=
EXTT21=
EXTT22=
PLAYORDER=
